<?xml version="1.0" encoding="UTF-8"?>
<svg id="Warstwa_1" data-name="Warstwa 1" xmlns="http://www.w3.org/2000/svg" version="1.1" viewBox="0 0 1423.31 523.33">
  <defs>
    <style>
      .cls-1 {
        fill: #292929;
      }

      .cls-1, .cls-2, .cls-3 {
        stroke-width: 0px;
      }

      .cls-2 {
        fill: #e6553f;
      }

      .cls-4 {
        fill: #eb5e4a;
        font-family: LucidaSansUnicode, 'Lucida Sans Unicode';
        font-size: 80px;
      }

      .cls-5 {
        fill: #fff;
        stroke: #fff;
        stroke-miterlimit: 10;
      }

      .cls-3 {
        fill: #dddbd5;
      }
    </style>
  </defs>
  <path class="cls-3" d="M461.88,769.67c8.68-.17,17.36-.35,26.04-.52,4.77-.09,9.53-.24,14.3-.22,4.37.02,8.73.3,13.1.33,5.16.04,10.32-.15,15.47-.09,3.82.04,7.65.33,11.47.51h-80.38,0Z"/>
  <path class="cls-3" d="M399.03,222.08c.05,1.23.12,2.47.15,3.7.15,5.05.38,10.11.41,15.16.02,2.68-.29,5.35-.47,8.03-.02.3-.06.73-.26.86-3.04,2.12-2.37,5.1-1.71,7.94,1.21,5.25,1.38,10.53,1.03,15.88-.18,2.76.26,5.56.14,8.33-.07,1.68-.54,3.38-1.09,4.98-.92,2.68-1.87,5.14-1.34,8.23.61,3.57.33,7.33-1.49,10.73-.28.53-.36,1.18-.63,1.73-.81,1.67-1.66,3.32-2.5,4.97-.21.41-.65.82-.62,1.2.53,6.44-2.92,11.84-4.6,17.69-1.62,5.65-3.94,10.99-7.07,15.99-.83,1.32-.93,3.1-1.37,4.67-.26.09-.52.18-.78.28-1.07-1.59-2.45-3.05-3.17-4.79-3.47-8.42-6.83-16.89-10.07-25.4-.64-1.68-.67-3.62-.77-5.45-.09-1.68-.28-2.91-1.97-4.04-1-.66-1.35-2.85-1.34-4.35.02-3.14.2-3.13-2.37-5.05-2.22,1.36-1.88,3.47-1.5,5.51.26,1.38.33,2.14-1.45,2.66-1.23.36-2.1,1.97-3.32,3.23-.58-.4-1.72-1.22-2.91-1.98-1.41-.89-2.6-.38-3.29.93-.64,1.2-.87,2.61.7,3.41,2.1,1.07,4.25,2.03,6.37,3.06.32.15.61.37.84,1.05-.82,0-1.64.08-2.45-.02-1.59-.2-3.21-.21-3.72,1.62-.48,1.75,1.04,3.54,3.12,3.38,2.8-.22,5.57-.94,8.34-1.52.9-.19,1.75-.61,2.97-1.06,1.33,3.59,2.75,7.41,4.15,11.24,2.49,6.8,4.98,13.57,8.91,19.75,2.16,3.4,3.51,7.3,5.55,10.79,1.57,2.69,3.65,5.07,5.5,7.59.18.25.48.48.53.76.65,3.81,4.17,5.19,6.36,7.69.87.99,1.44,2.39,1.74,3.69.97,4.21,1.43,8.56,2.7,12.67,1.04,3.37,2.85,6.53,4.54,9.67.52.97,1.84,1.48,2.64,2.35,1.92,2.11,3.51,4.32,3.92,7.37.2,1.51,1.79,2.79,2.5,4.29.38.81.31,1.87.32,2.82,0,1.05-.37,2.14-.2,3.15,1.79,10.12,3.49,20.25,5.55,30.31,2.22,10.82,4.75,21.57,7.25,32.33,1.43,6.16,3.21,12.25,4.58,18.43,1.15,5.18,1.77,10.48,2.92,15.66,1.05,4.74,2.49,9.39,3.8,14.07.16.58.39,1.25.81,1.64,3.2,3,3.32,7.16,4.17,11.02,2.28,10.4,4.51,20.82,6.74,31.23,1,4.68,1.79,9.4,2.93,14.04,1.1,4.49,2.59,8.88,3.81,13.34.65,2.37,1.02,4.82,1.61,7.2,1.35,5.38,2.76,10.75,4.13,16.13.07.27,0,.57,0,.85-.21.14-.42.27-.63.41-.46-.62-1.11-1.18-1.35-1.88-.52-1.54-.95-1.9-2.58-.88-3.91,2.43-8.21,3.99-13.35,4.9.62-1,.95-1.52,1.32-2.12-.06-.09-.16-.29-.29-.48-.73-1.07-2-2.09-2.09-3.21-.23-2.78-1.96-2.51-3.86-2.64-5-.37-10.09-.42-14.94-1.49-5-1.11-9.06.59-13.26,2.55-.54.25-1.07.51-2.35,1.12.45-1.41.56-2.27.97-2.94,1.78-2.93,1.26-4.71-1.85-6.05-2.16-.94-4.3-1.94-6.35-2.88.27-1.34.47-2.36.81-4.11-1.94.9-3.3,1.54-4.66,2.17-.22-.13-.44-.25-.67-.38.37-1.03.61-2.13,1.14-3.07,1.05-1.87.76-2.39-1.24-2.88-1.6-.39-3.16-1.11-4.58-1.95-.4-.23-.21-1.4-.37-2.12-.26-1.13-.59-2.23-.9-3.35-.23.03-.46.06-.69.09.5-1.01,1.15-1.99,1.45-3.06.16-.57-.29-1.31-.46-1.97-.64.24-1.54.29-1.86.75-1.17,1.69-2.15,3.52-3.2,5.3-2.47-1.6-2.81-1.43-3.39,1.21-.11.5-.56.96-.95,1.34-.99.98-2.48,1.73-2.97,2.9-2.12,5.03-3.92,10.2-5.92,15.29-.45,1.15-1.28,2.15-2.13,3.53-.57-.77-.92-1.07-1.05-1.45-2.14-6.52-4.43-12.99-6.3-19.59-1.34-4.72-1.97-9.64-3.15-14.41-.79-3.19-2.02-6.27-3.01-9.42-2.66-8.54-5.32-17.09-7.94-25.65-1.78-5.81-3.54-11.63-5.18-17.48-1.37-4.9-2.57-9.86-3.79-14.8-.13-.53.08-1.14.14-1.72l-.02.03c.04-.1.07-.21.11-.31h-.16c.02-.07.04-.14.06-.21l.03.05c-1.41-1.75-2.79-3.52-4.23-5.23-1.66-1.98-3.38-3.91-5.06-5.87-.9-1.05-1.66-2.26-2.71-3.14-1.32-1.11-3.15-.85-3.9.39-.46.75.17,2.74.96,3.53,1.49,1.51,3.44,2.56,5.2,3.8-.12.28-2.02.8-2.05.64-.28-1.57-1.4-1.08-2.39-1.27-1.26-.25-2.5-.86-3.63-1.51-3.46-1.99-6.84-4.12-10.3-6.11-7.81-4.49-15.7-8.85-23.46-13.42-4.81-2.84-9.52-5.88-14.14-9.01-6.33-4.28-12.55-8.72-18.8-13.13-.94-.66-1.75-1.5-2.59-2.29-1.02-.95-2.56-1.73-.91-3.5.2-.22-.47-1.53-.99-2.09-.82-.89-2.14-1.4-2.77-2.37-3.22-4.95-7.55-8.82-12.26-12.18-9.66-6.89-19.47-13.56-29.3-20.2-3.41-2.3-7.11-4.17-10.58-6.39-2.3-1.47-4.36-3.31-6.63-4.84-3.31-2.24-3.26-5.67-2.7-8.82.91-5.14,2.46-10.16,4.18-15.43.75,2.81,1.44,5.64,2.29,8.43.27.9.91,1.7,1.45,2.51.42.64.98,1.18,1.4,1.82,1.01,1.53,1.91,3.14,2.97,4.64,1.45,2.06,5.96,3.08,7.7,1.77,5.28,4.16,10.52,8.41,15.9,12.48,2.43,1.84,5.15,3.3,7.69,5.01.94.64,1.64,1.64,2.57,2.28,2.52,1.71,5.12,3.31,7.67,4.98,2.38,1.56,4.79,3.08,7.1,4.74,5.78,4.18,11.28,8.84,17.37,12.5,3.09,1.86,3.72,4.88,5.63,7.22,3.62,4.44,7.75,8.29,12.41,11.58.51.36,1.49.04,2.26.03-.24-.66-.29-1.5-.74-1.95-2.27-2.29-4.67-4.45-6.96-6.73-.62-.62-.97-1.51-1.45-2.27.16-.18.32-.35.48-.53,2.15,1.61,4.24,3.31,6.45,4.82,4.94,3.37,9.77,6.94,14.96,9.87,4.58,2.6,9.58,4.47,14.41,6.62,5.74,2.56,11.48,5.13,17.28,7.54.9.37,2.18-.02,3.24-.27.21-.05.47-1.26.23-1.59-.46-.63-1.19-1.15-1.92-1.46-4.57-1.93-9.23-3.67-13.75-5.7-4.86-2.18-9.45-5.04-14.43-6.83-8.69-3.13-15.16-9.54-22.61-14.47-2.34-1.54-4.09-3.94-6.29-5.74-.89-.73-2.24-.9-3.4-1.28-.77-.25-1.71-.21-2.34-.64-8.67-5.86-17.31-11.77-25.94-17.71-3.81-2.62-7.56-5.32-11.32-8.01-4.12-2.95-8.26-5.87-12.31-8.91-2.34-1.75-4.55-3.7-6.77-5.61-.28-.24-.45-.83-.38-1.2.52-2.74-.07-3.43-2.86-3.25-.21.01-.43-.06-.61-.09.14-1.33.78-2.91.26-3.8-.52-.89-2.21-1.1-3.52-1.67-.04-2.6-2.24-3.64-4.21-4.7-1.86-1-2.42.34-2.53,2.08-.28.18-.56.37-.84.55-.15-.49-.31-.98-.44-1.48-1.07-4.12-2.04-8.28-3.22-12.36-1.21-4.19-2.79-8.28-3.93-12.49-.94-3.48-1.59-7.05-2.15-10.62-.84-5.32-1.75-10.65-2.12-16.02-.31-4.44.09-8.94.27-13.4.04-.9.5-1.79.77-2.68l.64.06c.12.64.2,1.29.37,1.92.73,2.64,1.3,5.34,2.29,7.88,1.37,3.53,3.2,6.87,4.58,10.4,2.11,5.39,5.12,10.04,9.81,13.56.79.59,1.12,1.78,1.66,2.7.11.2.14.48.3.61,1.46,1.26,3.18,2.3,4.36,3.78,1.77,2.22,3.27,4.67,4.69,7.14,1.11,1.93,1.88,4.06,2.9,6.06.53,1.05,1.25,1.63,2.62.87.59-.32,1.82-.13,2.41.31,1.91,1.42,3.63,3.08,5.46,4.6,4.26,3.55,8.45,7.21,12.86,10.57,3.52,2.68,7.28,5.05,11.01,7.43,2.39,1.53,4.96,2.79,7.39,4.26,1.37.83,2.56,1.98,3.96,2.74,2.64,1.43,5.35,2.73,8.08,3.99,4.37,2.02,8.75,4.03,13.18,5.93,2.59,1.11,5.28,1.96,7.91,2.96,1.14.43,2.22,1.25,3.38,1.35,1.03.09,2.72-.27,3.07-.96.76-1.49-.45-2.17-1.9-2.68-4.13-1.44-8.22-3-12.27-4.66-5.16-2.11-10.29-4.28-15.36-6.6-2.13-.98-4.05-2.4-6.06-3.65-1.31-.81-2.6-1.65-3.89-2.49-5.16-3.35-10.36-6.65-15.44-10.12-.8-.54-1.34-1.83-1.5-2.85-.3-1.94-.9-2.43-2.71-1.66-.32.14-.63.27-1.24-.04.46-.41,1.01-.76,1.35-1.25.44-.65,1.15-1.59.95-2.09-.33-.81-1.24-1.44-2.02-1.97-.57-.39-1.66-.32-1.95-.8-1.59-2.65-4.26-4.71-4.32-8.23-.04-2.06-1.27-2.53-4-1.89-.67-1.26-1.33-2.49-1.98-3.72-.28-.04-.56-.07-.85-.11-.61,1.06-1.21,2.13-1.97,3.46-.43-.22-1.24-.53-1.92-1.01-2.5-1.79-4.98-3.38-6.87-6.1-2.68-3.85-6.36-6.99-9.57-10.48-2.56-2.77-5.7-5-6.6-9.16-.49-2.25-2.38-4.17-3.51-6.32-3.24-6.16-5.27-12.57-5.88-19.66-.3-3.5,1.02-5.82,1.98-8.67,1.43-4.24,2.5-8.61,3.43-12.99.34-1.63-.16-3.43-.27-5.15.31-.09.63-.19.94-.28.78,1.08,1.55,2.17,2.34,3.25.86,1.16,1.72,2.32,2.59,3.47.14.18.46.33.46.49.04,4.36,4.38,5.7,6.15,8.84,1.94,3.44,3.97,6.84,5.66,10.41,1.7,3.58,4.27,6.47,7.09,9.03,2.04,1.85,4.91,2.77,7.16,4.44,2.56,1.9,4.85,4.15,7.24,6.28.97.87,1.89,1.8,2.79,2.74,1.2,1.26,2.47,2.47,3.51,3.84,2.95,3.89,7.84,3.95,11.69,6.04.53.29,1.15.4,1.67.69,2.26,1.27,4.45,2.66,6.75,3.84,2.7,1.39,5.47,2.66,8.24,3.89,3.08,1.36,6.32,2.39,9.26,3.99,2.53,1.38,5.64,2.9,6.83,5.21,1.27,2.49,3.07,4.03,4.89,5.8,1.12,1.09,2.07,2.41,3.34,3.28.73.5,1.94.32,2.94.44-.11-.84-.17-1.69-.34-2.53-.07-.33-.35-.61-.95-1.6,5.47,1.41,10.33,2.52,15.09,3.93,4.17,1.23,8.26,2.73,12.33,4.26,1.77.67,3.39,1.75,5.12,2.55.59.27,1.31.25,1.98.37-.21-.88-.12-2.1-.68-2.57-1.63-1.39-3.52-2.47-5.3-3.69-.37-.25-.71-.54-1.39-1.06,1.8-.13,3.55.22,4.52-.49.75-.55.52-2.44.79-4.17.86-.08,1.92.23,1.84,2.15-.05,1.24-.12,2.48-.08,3.71.02.57.12,1.37.49,1.65.93.71,2.04,1.18,3.07,1.75.26-1.01.55-2.01.75-3.03.07-.36-.18-.77-.13-1.14.09-.82.11-2.23.45-2.32.81-.22,2.07-.13,2.66.39,1.78,1.58,3.33,3.42,4.96,5.16.37.39.71.81,1.06,1.21,1.88-.58,2.14-2.54,1.32-5.1-.99-3.06-2.79-5.36-5.07-7.51-.71-.67-.65-2.16-.9-3.29-.22-.99-.39-1.99-.58-2.99-.15-.8-.46-1.62-.42-2.41.33-7.74-1.22-15.3-3.85-22.39-2.32-6.24-4.08-12.41-4.38-19.01-.08-1.68.23-3.37.38-5.05.05-.54.35-1.11.23-1.59-1.25-5.37,1.79-9.84,3.04-14.67.95-3.67,2-7.31,3.17-10.91.35-1.08,1.52-1.91,1.85-2.99.47-1.53.61-3.19.69-4.8.16-3.24.34-6.49.2-9.73-.1-2.27,1.18-3.7,2.37-5.25.24-.32.87-.69,1.13-.58,2.35,1,1.99-.82,2.12-1.67,4.02-2.47,7.55-5.97,12.73-3.82-1.64,3.16-3.58,6.42-5.06,9.87-1.44,3.34-2.51,6.84-1.88,10.62.25,1.51-.03,3.12.3,4.6.29,1.3.89,2.64,1.71,3.69.77.99,2.15,1.52,1.81,3.14-.01.06.05.2.08.2,3.04.28,3.03,4.44,6.29,4.81.27-1.66.75-3.29.72-4.92-.02-1.07-.48-2.45-1.24-3.13-1.39-1.23-1.09-2.32-.45-3.65,1.32-2.74,2.98-5.39,3.83-8.27,1.27-4.3,2.03-8.76,2.9-13.17.89-4.53,1.71-9.08,2.44-13.64.2-1.24.2-2.62-.14-3.82-1.12-3.95-.46-7.89-.33-11.85.09-2.81-.28-5.64-.45-8.56,12.37-1.21,22.69-6.41,31.31-15.1,1.1,1.72,2.21,3.42,3.32,5.13v-.03Z"/>
  <path class="cls-3" d="M124.55,540.85c-.67-.13-1.2-.08-1.52-.31-2.61-1.87-5.7-1.91-8.67-2.51-1.46-.29-3.09-.8-4.14-1.76-1.5-1.37-3.23-2.45-4.35-4.46-1.49-2.66-3.94-4.79-5.96-7.16-.55-.65-1.29-1.25-1.55-2-1.84-5.27-6.19-8.73-9.34-13.04-2.31-3.16-4.94-6.08-7.34-9.17-2.98-3.83-7.5-4.93-11.62-6.77-3.04-1.36-6.07-2.72-9.03-4.24-.56-.28-.87-1.24-1.08-1.96-.67-2.3-1.19-4.64-1.86-6.94-.71-2.39-1.99-4.24-4.64-4.94-.56-.15-1.13-1.34-1.19-2.09-.36-4.28-.84-8.58-.73-12.86.08-3.22.96-6.41,1.5-9.62,1.68-9.97,3.36-19.94,5.06-29.91.03-.2.2-.38.31-.59,2.18,1.7,4.28,3.41,6.48,4.98.52.37,1.71.62,2.03.32,1.68-1.55,3.49-.73,5.26-.53,1.71.2,3.26.05,5.18-1.68-2.44-.67-4.21-1.31-6.04-1.62-4-.67-6.93-2.47-8.64-6.37-.5-1.14-2.31-1.71-3.53-2.54-.2.16-.41.31-.61.47.12-.71.24-1.43.42-2.46,1.05.35,1.89.62,2.73.91.73.25,1.51.86,2.16.74,4.18-.77,7.54,1.98,11.4,2.49,2.13.29,4.24.83,6.38.94,2.45.12,4.92-.03,7.37-.26.69-.06,1.32-.79,1.98-1.22-.58-.48-1.12-1.28-1.76-1.38-1.67-.24-3.38-.14-5.07-.25-1.75-.11-3.52-.19-5.23-.52-1.77-.35-2.34-1.67-2.49-3.43-.35-4.17-1.29-4.65-5.25-3.04-.38.15-1.06-.02-1.41-.29-1.29-.97-2.53-2.01-3.73-3.08-.3-.27-.43-.76-.56-1.17-.34-1.14-.53-2.33-.98-3.42-2.13-5.11-4.41-10.16-6.48-15.29-.84-2.08-1.27-4.33-1.96-6.47-.21-.64-.68-1.19-.98-1.71-.81.87-1.4,1.51-1.99,2.14-.66-.74-1.44-1.4-1.96-2.22-1.37-2.18-2.65-4.41-3.89-6.66-.29-.53-.25-1.25.1-2.16,3.08,2.61,6.15,5.22,9.25,7.81.77.64,1.56,1.27,2.43,1.74.43.23,1.07.09,1.62.12-.03-.63.2-1.5-.12-1.84-2.39-2.48-4.76-5.01-7.38-7.22-2.95-2.5-5.02-5.48-7.13-8.73-3.67-5.68-3.27-12.23-5.24-18.23-1.44-4.38-2.27-8.96-3.21-13.49-.28-1.33.13-2.78-.01-4.15-.39-3.66-1.02-7.3-1.33-10.96-.18-2.21-.1-4.49.18-6.69.33-2.67-.78-4.56-2.49-6.41-1.11-1.2-1.89-2.7-2.85-4.04-.62-.87-1.3-1.7-2.36-3.09.58-3.11.97-7.04,2.13-10.72.7-2.21,2.58-4.06,3.97-6.04,1.07-1.51,2.11-3.05,3.34-4.42,2.06-2.31,4.26-4.5,6.43-6.76,2.65,1,2.56.92,2.98-1.97.53-3.64,1.35-7.25,2.11-10.85.15-.71.62-1.36.92-1.99,1.57.59,2.96,1.11,4.45,1.68.02-2.17-1.14-4.36,1.08-5.23-.06-1.24-.05-2.31-.17-3.37-.09-.78-.31-1.56-.52-2.32-.44-1.57-.93-3.12-1.38-4.69-.17-.59-.12-1.27-.39-1.79-2.56-4.9-1.4-10.1-1.3-15.21.07-3.67.18-7.34.31-11.01.02-.58.15-1.23.44-1.72,2.85-4.75,6.31-8.92,11.19-11.75,1.07-.62,1.95-1.6,3.06-2.09,4.96-2.19,9.83-4.69,14.99-6.24,5.02-1.51,10.35-1.99,15.53-2.97.94-.18,1.83-.62,3.06-.48-1.25,1.29-2.5,2.57-3.75,3.86.14.23.27.47.41.7.78-.24,1.63-.34,2.32-.74,1.67-.97,3.52-1.82,4.83-3.17,2.02-2.08,4.71-2.01,7.1-2.86.44-.16,1.03.12,1.55.12,1.67,0,3.42.28,5-.12,2.63-.65,5.03-.43,7.3.76-.34.86-1.16,2.24-.92,2.46,1.05.95,2.39,1.58,3.65,2.27.39.21.98.08,1.33.32,1.58,1.08,3.1,2.25,4.64,3.38,1.08.79,2.07,1.83,3.27,2.33,6.06,2.54,6.08,2.49,14.77.03-1.9,6.82-30.82,17.13-35.17,13.18-1.15.35-2.13.93-3.08.89-2.91-.14-5.81-.61-8.72-.78-1-.06-2.48.06-2.98.7-2.02,2.58-5.06,2.73-7.75,3.34-2.76.62-5.73.28-8.59.58-1.09.11-2.22.69-3.15,1.32-1.75,1.18-3.26,2.75-5.08,3.8-2.6,1.52-3.33,4.18-3.31,6.54.04,4.51-3.02,6.57-6.03,8.3-3.01,1.73-4.22,4.5-5.72,7.16-.33.59.3,2.48.85,2.66.97.32,2.7.2,3.27-.47,4.61-5.32,10.35-9.15,16.3-12.7,2.58-1.54,5.25-2.91,7.89-4.35.41-.22.84-.47,1.28-.52,3.01-.37,6.04-.68,9.05-1.03,8.37-.97,16.33,1.65,24.43,2.91,4.08.63,8.18,1.52,12.06,2.9,3.31,1.17,6.34,3.17,9.45,4.87,2.49,1.36,5,2.74,7.38,4.28,2.17,1.41,4.17,3.07,6.25,4.6,2.23,1.65,4.42,3.37,6.73,4.88,1.76,1.15,1.97,2.07.51,3.63-.44.47-.98,1.14-.96,1.69.16,4.32.42,8.64.74,12.95.03.37.72,1,1.06.97,1.68-.12,1.83,1.14,2.49,2.19,1.06,1.67,2.55,3.05,3.82,4.58,1.92,2.32,1.88,3.22.59,4.15-2.43-2.09-4.56-4.42-7.15-5.97-1.52-.91-3.69-1.09-4.56-2.77-1.24-2.4-3.67-2.73-5.66-3.62-2.33-1.04-4.99-1.36-7.52-1.92-2.93-.64-5.9-1.1-8.8-1.83-3.45-.87-6.85-1.97-10.28-2.94-1.02-.29-2.08-.43-3.1-.7-.58-.16-1.48-.32-1.62-.71-.92-2.52-2.93-1.97-4.88-2.17-1.25-.13-2.58-1.03-3.56-1.92-1.59-1.44-3.11-2.08-5.14-1.03-2.76,1.42-5.35-.5-8.07-.52-3.27-.02-6.53-.63-9.8-.99-.65,4-3.71,4.35-6.07,5.27-3.47,1.35-7.04,2.2-8.66,6.23-.82,2.04-2.23,3.7-4.75,4.38-1.55.42-2.82,1.95-4.15,3.07-.99.83-1.89,1.78-2.79,2.72-.34.36-.78.85-.78,1.29,0,1.26.21,2.51.34,3.77,3.43.58,4.78-2.41,6.77-4.1,3.58-3.04,6.87-6.42,10.35-9.59.77-.7,1.77-1.2,2.72-1.65,1.7-.8,3.6-1.27,5.15-2.29,5.81-3.85,11.9-3.97,18.35-2.01,3.73,1.13,7.59,1.81,11.37,2.78,3.59.92,7.19,1.85,10.73,2.95,4.51,1.41,8.86,3.59,13.46,4.37,5.1.87,8.94,3.59,12.96,6.31,2.93,1.98,6.01,3.75,9.05,5.63-3.88,3.65-3.7,8.78-4.86,13.42-.09.37.2.85.37,1.25.37.87.77,1.72,1.16,2.58-.25.18-.5.37-.74.55-.64-.31-1.29-.61-1.92-.94-.47-.25-.99-.85-1.36-.76-3.19.77-4.06-1.82-5.32-3.69-.89-1.31-1.68-1.58-3.37-1.43-4.76.42-9.37,2.01-14.38.87-4.2-.95-8.69-.6-13.05-.81-3.94-.19-7.88.29-11.6-1.96-2.49-1.51-3.76-3.68-5.16-5.95-.47-.76-1.09-1.55-1.83-2-2.12-1.28-3.36-.43-3.8,2.04-.42,2.37.39,4.96-1.18,7.12-.31.42-.64.96-1.08,1.13-2.36.89-4.26,2.5-6.35,3.79-3.68,2.27-6.49,5.21-9.17,8.44-1.65,1.99-3.16,4.15-5.07,5.84-2.24,1.98-4.75,3.69-7.31,5.24-3.07,1.87-6.29,3.49-9.48,5.14-.65.33-1.57.58-2.21.39-1.93-.58-1.99.71-2.39,1.96,1.73,1.08,3.37,1.56,5.3.82,2.52-.96,5.3-1.4,7.6-2.72,3.36-1.92,6.35-4.47,9.57-6.65.83-.56,1.9-.82,2.89-1.1,1.29-.37,2.76-.34,3.88-.98,2.63-1.52,4.99-3.35,8.24-3.74,4.08-.49,8.08-1.58,12.14-2.33,4.42-.83,8.84-1.78,13.3-2.29,4.01-.46,8.07-.41,12.11-.58.46-.02.93.06,1.37-.03,2.61-.51,5.1-.5,7.72.37,3.74,1.25,7.66,1.94,11.45,3.07.88.26,2.08,1.25,2.17,2.03.56,4.59,3.88,7.43,6.4,10.78.13.18.27.36.69.94-1.26.64-2.38,1.61-3.61,1.76-2.7.35-5.48.08-8.17.45-2.9.4-5.83.48-8.51,2.36-2.58,1.81-5.79,2.91-9.04,2.21-1.04-.22-1.74-1.89-2.69-2.8-.66-.63-1.46-1.46-2.23-1.49-.56-.02-1.49,1.03-1.68,1.75-.35,1.35.31,3.23-1.62,3.66-1.8.4-3.7.33-5.55.43-1.94.1-3.9.11-5.83.28-.45.04-1.14.53-1.23.92-.66,3.1-3.14,3.15-5.54,3.92-2.32.74-4.41,2.42-6.36,3.99-1.38,1.11-2.18,2.6-3.99.39-1.12-1.37-3.36-.68-4.53.99-.84,1.2-1.66,2.41-2.51,3.6-1.32,1.85-3.01,2.83-5.38,3.16-2.17.3-4.26,1.06-6.24,2.45-1.54,1.07-4.04.83-6.13.99-1.14.09-2.31-.31-3.45-.25-.82.04-2.23.35-2.31.75-.23,1.2-.17,2.58.24,3.73.2.55,1.46,1.04,2.21,1,2.2-.12,4.38-.52,6.57-.81.07.24.14.48.21.73-.82.28-1.63.67-2.48.82-2.34.41-3.1,1.62-2.57,3.86.21.88-.04,1.86-.1,3.09h3.43c-1.96,2.29-5.39,3.95-8.09,4.24-.61.06-1.54.69-1.65,1.2-.26,1.23-.49,2.72.01,3.75.26.54,2.26.73,3.17.35,2.25-.95,4.32-2.32,6.45-3.54,1.29-.74,2.56-1.53,3.84-2.3.21.24.42.48.63.71-3.67,4.35-7.34,8.71-11,13.06.16.15.31.3.47.45.28-.05.59-.02.82-.15,1.76-1.03,3.59-1.7,5.58-.77,1.93.9,3.16-.17,4.03-1.55,1.46-2.3,3.41-3.83,5.77-5.17,1.58-.9,2.73-2.64,3.92-4.12,1.34-1.67,2.49-3.29,5.08-2.14,2.28,1.02,4.74,1.64,7.05,2.6,4.3,1.78,8.49,3.85,12.84,5.48,4.03,1.51,6.41,4.94,9.43,7.6.61.54.4,3.14-.35,3.91-2.55,2.64-5.35,5.1-8.34,7.24-2.8,2.01-5.93,3.58-8.98,5.22-1.39.75-2.91,1.26-4.41,1.78-1.56.54-3.03,1.26-2.66,3.18.41,2.11,1.81,2.78,4,2.22.95-.24,1.88-.55,2.82-.83.09.2.18.39.27.59-1.11.49-2.19,1.07-3.34,1.45-1.39.46-2.92.56-4.22,1.17-.75.35-1.72,1.46-1.62,2.09.13.92,1.08,1.76,1.78,2.55.2.23.79.32,1.1.2,2.89-1.07,5.56.33,8.33.64,1.73.2,3.53-.21,5.3-.35.13.22.26.43.39.65-.73.62-1.36,1.48-2.2,1.82-3.69,1.48-7.44,2.81-11.16,4.21-.17.06-.3.25-.32.83.97-.19,1.93-.39,3.15-.64,0,.65.02,1.35,0,2.06-.05,1.7,1.29,2.78,2.83,2.22,3.61-1.3,7.25-2.54,10.81-4,1.53-.63,2.83-1.8,4.33-2.55.78-.39,1.75-.41,2.64-.6.13.19.27.38.4.58.32-.82.64-1.65.99-2.53,1.01.04,2.05.09,3.22.14-.27,2.98-3.25,5.63-1.01,8.63-5.91,3.78-12.15,4.38-18.49,4.32-2.88-.03-5.76-.34-8.62-.74-.8-.11-1.53-.95-2.24-1.52-1.5-1.19-3.26-.59-3.65,1.28-.38,1.83.89,4.2,2.72,4.49,2.84.45,5.73.82,8.6.84,2.97.02,5.94-.42,8.92-.64.37-.03.89-.04,1.11.17,2.48,2.34,3.18.18,4.08-1.56.2-.38.52-.7,1.1-1.46.91,2.35,2.12,4.15,1.17,6.52-.54,1.33-.88,2.75-1.2,4.16-.12.51.09,1.1.15,1.65.56-.29,1.38-.43,1.65-.89,1.06-1.84,1.94-3.77,3.19-6.28.21,1.1.34,1.62.41,2.14.21,1.58.59,3.16.53,4.73-.04,1.04-.48,2.72-1.14,2.94-1.58.54-1.43,1.38-1.4,2.63.12,5.32.24,10.65.09,15.97-.08,2.81-.67,5.62-1.1,8.41-.08.49-.43,1-.79,1.36-1.14,1.13-1.49,2.17-.26,3.53.45.5.62,1.42.61,2.15-.05,7.24-.14,14.49-.26,21.73-.09,5.23-.24,10.46-.36,15.7,0,.54-.07,1.11.08,1.61,2.6,8.82,2.14,17.9,2.37,26.92.02.6-.17,1.21-.31,2.12l-.09.02ZM46.18,291.1l.57.27c3.69-1.94,7.37-3.89,11.55-6.09-.93-.87-1.84-2.21-3.1-2.78-1.6-.72-3.48-.87-5.26-1.17-.56-.1-1.18.1-1.77.17.06.55-.07,1.23.21,1.62,1.2,1.65.87,2.95-.41,4.44-.84.97-1.21,2.34-1.79,3.54ZM111.17,220.91c-.05-.36-.1-.71-.15-1.07-1.44-.25-2.88-.56-4.33-.71-.66-.07-1.55-.01-1.97.38-.29.27-.16,1.38.18,1.82.5.65,1.47,1.56,2.02,1.43,1.48-.35,2.84-1.2,4.24-1.85h0ZM135.27,194.06c.09-.3.19-.59.28-.89-.64-.16-1.29-.31-1.93-.48-.84-.22-1.68-.44-2.52-.67-.69-.19-1.37-.43-2.07-.56-.11-.02-.49.6-.43.67.44.57.91,1.43,1.48,1.53,1.7.3,3.46.28,5.19.39h0Z"/>
  <path class="cls-2" d="M390.9,140.69c-1.36-2.46-2.3-4.74-2.02-7.7.31-3.27-.77-6.67-1.26-10.01-.3-2.03-.56-4.07-.96-6.08-.21-1.04-.85-2-1.02-3.03-.43-2.66-.4-5.42-1.11-7.99-1.19-4.31-.89-8.97-3.65-12.96-1.39-2.01-1.69-4.77-2.52-7.18-1.2-3.49-2.43-6.97-3.64-10.45-.23-.66-.6-1.3-.67-1.97-.6-5.97-4.14-10.37-7.9-14.57-4.94-5.51-11.35-8.88-18.22-11.26-3.84-1.33-7.86-2.27-11.87-2.88-2.16-.33-4.47.4-6.72.65-.44.05-1.09.29-1.3.09-1.78-1.69-3.69-.58-5.44-.19-4.01.89-7.91,2.71-12.12.65-.36-.18-1.86.83-1.85,1.27.03,1.15.26,2.82,1.03,3.31,1.13.72,2.81.89,4.23.79,5.31-.37,10.63-.73,15.89-1.49,4.64-.67,9.09.03,13.47,1.21,2.47.67,4.76,2.06,7.11,3.17.7.33,1.32.81,2,1.16,1.91.97,4.12,1.23,5.04,3.9.5,1.46,2.64,2.28,3.82,3.59,2.14,2.37,4.31,4.74,6.11,7.36,4.17,6.05,5.63,13.24,7.96,20.05.43,1.24.62,2.6,1.25,3.72,2.68,4.77,3.48,10,4.16,15.76-2.04-3.9-3.87-7.42-5.72-10.92-1.41-2.65-3.12-5.18-4.22-7.95-1.47-3.71-2.22-7.72-3.76-11.4-2.75-6.54-6.62-12.26-13.18-15.73-3.65-1.93-7.11-4.2-10.77-6.11-1.68-.87-3.62-1.25-5.45-1.83-1.37-.43-2.88-.59-4.1-1.28-2.27-1.27-3.69.54-5.38,1.21-2.83,1.13-5.47,2.9-8.38,3.65-6.93,1.77-13.97,3.13-20.98,4.57-.77.16-1.64-.33-2.47-.34-3.18-.04-6.03.7-8.52,2.95-1.39,1.25-3.24,2.06-5,2.81-3.67,1.58-6.69,3.94-9.3,6.92-.54.62-1.37.98-1.97,1.55-4.95,4.7-9.96,9.34-14.75,14.2-1.7,1.73-2.74,4.09-4.24,6.05-2.98,3.9-6.22,7.61-9.05,11.62-1.42,2.02-2,4.61-3.29,6.75-1.42,2.34-3.23,4.44-4.83,6.68-.34.48-.51,1.08-.72,1.64-.6,1.63-.85,3.51-1.83,4.86-2.87,3.94-4.53,8.29-5.76,12.97-.59,2.27-1.91,4.65-3.58,6.26-3.43,3.3-5.41,7.33-6.96,11.62-.71,1.96-1.5,2.98-3.78,2.74-2.37-.24-4.78-.05-7.63-.05,1.7-5.03,3.23-9.62,4.81-14.18,2.03-5.84,3.97-11.71,6.19-17.48,1.93-5.02,3.6-10.24,7.85-13.99.26-.23.48-.65.51-1,.12-1.46.16-2.92.23-4.45-1.56-.36-4.58,1.25-5.3,2.78-1.17,2.5-2.52,4.92-3.84,7.34-.15.27-.59.5-.92.53-1.19.1-2.41.29-3.57.12-4.05-.6-5.55,2.45-7.16,5.08-1.54,2.51-.42,4.36,2.5,4.7.54.06,1.08.07,1.62.09,1.86.1,2.39.81,1.28,2.5-.45.69-.68,1.54-.91,2.35-1.61,5.69-3.15,11.4-4.82,17.08-.74,2.5-1.74,4.92-2.64,7.36-.66,1.78-1.87,2.64-3.86,2.7-8.33.26-16.66.5-24.98.99-4.21.25-8.39,1.12-12.6,1.5-4.3.39-8.63.47-12.94.79-2.21.17-4.4.64-6.61.86-2.62.25-5.26.33-7.89.57-2.39.22-2.54,2.63-3.49,4.07-.81,1.24-1.12,1.58-2.57,1.05-2.63-.97-5.38-1.61-8.63-2.54,1.44-1.81,2.62-3.26,3.76-4.74,4.16-5.38,8.38-10.69,11.4-16.88,3.56-7.28,7.7-14.26,11.23-21.55,3.08-6.35,5.63-12.95,8.49-19.41.65-1.47,1.48-2.92,2.49-4.16,2.04-2.52,1.94-5.34,1.21-8.14-.21-.81-1.54-1.32-2.35-1.97-.64.81-1.61,1.54-1.88,2.46-1.02,3.46-1.52,7.1-2.75,10.48-2.85,7.83-5.82,15.62-9.1,23.27-2.06,4.81-4.78,9.33-7.18,13.99-1.27,2.46-2.21,5.13-3.77,7.38-3.1,4.49-6.48,8.8-9.84,13.1-1.38,1.76-3.1,3.25-4.51,4.98-2.21,2.72-5.26,3.74-8.48,4.3-6.15,1.06-12.31,2.01-18.48,2.89-.81.11-1.71-.48-2.57-.75.69-.62,1.36-1.25,2.06-1.85,1.47-1.23,2.97-2.42,4.43-3.67,2.98-2.55,6.01-5.05,8.87-7.73,2.1-1.97,4.1-4.07,5.88-6.32,3.27-4.16,7.05-7.96,9.21-12.92.33-.75.97-1.42,1.61-1.96,3.38-2.84,4.97-6.75,6.74-10.62,1.05-2.29,2.8-4.25,3.98-6.49,3.21-6.11,6.12-12.39,9.47-18.43,3.4-6.12,7.19-12.03,10.79-18.04.83-1.39,1.49-2.88,2.39-4.22,2.79-4.15,5.71-8.23,8.49-12.38,3.15-4.7,6.18-9.49,9.35-14.17.9-1.33,1.99-2.57,3.18-3.64,4.47-3.98,8.87-8.07,13.58-11.75,4.95-3.87,10.09-7.55,15.43-10.86,3.02-1.87,6.55-3,9.95-4.18,4.12-1.42,8.35-2.53,12.53-3.77.14.33.29.67.43,1-2.67,1.49-5.42,2.87-8.01,4.51-4,2.53-8.04,4.86-10.52,9.38-1.7,3.1-4.79,5.4-7.11,8.18-2.27,2.72-4.4,5.57-6.51,8.42-2.85,3.86-4.32,8.52-7.12,12.41-.48.67-1.04,1.32-1.69,1.81-1.64,1.25-2.81,2.52-1.92,4.86.28.74-.2,1.93-.65,2.74-4.19,7.53-8.56,14.97-12.65,22.56-4.35,8.08-7.82,16.55-10.52,25.34-.83,2.71-2.4,5.22-2.99,7.96-1.48,6.86-2.63,13.8-3.83,20.72-.52,3.01-.06,3.61,3,4.08.69-2.41,1.65-4.84,2.05-7.36,1.72-10.88,4.83-21.38,8.58-31.69,1.3-3.58,3.35-6.88,4.66-10.45,3.34-9.07,9.36-16.63,13.79-25.08,2.37-4.51,4.88-9.11,8.2-12.91,2.99-3.43,7.13-5.86,10.82-8.65.88-.67,2.27-1.31,1.31-2.4-.88-1-2.43-1.6-3.8-1.9-.64-.14-1.52.82-2.29,1.29-.18-.16-.36-.32-.53-.48,3.67-4.16,7.28-8.38,11.05-12.46,2.29-2.49,4.85-4.73,7.24-7.14,4.69-4.75,9.77-8.76,16.81-9.22.27-.02.53-.28.98-.53-.22-.65-.33-1.34-.65-1.91-1.13-2.02-.48-3.19,1.96-3.19,3.48,0,6.95.08,10.43.2,5.43.2,10.86.48,16.29.68.99.04,2-.11,3-.25,3.13-.45,6.12-.35,8.95,1.39.85.52,2.13.28,3.15.58,1.19.36,2.31.93,3.45,1.44.19.09.32.47.47.47,6.05-.08,10.12,4.33,15.09,6.69.71.34,1.24,1.08,1.66,2.06-6.1-2.45-12.27-3.2-18.58-2.73l-.17.69c1.93.75,3.84,1.55,5.79,2.25,3.13,1.13,6.4,1.97,9.39,3.39,2.02.96,3.73,2.63,5.46,4.13,1.95,1.68,2.77,1.77,4.71.08.17-.15.33-.32.52-.45,2.21-1.45,2.64-3.24,1.29-5.36.67-.45,1.34-.9,1.98-1.33,3.08,2.24,3.89,1.15,6.84-1.01,2.07-1.51,4.71-2.34,7.2-3.16,1.87-.62,3.94-.58,5.85-1.1,6.01-1.66,11.25.55,16.45,3.06,4.03,1.94,7.81,4.19,11.18,7.27,1.87,1.71,4.48,3.6,7.41,1.44.63-.47,1.25-1.18,1.45-1.9.11-.37-.59-1.16-1.1-1.5-3.2-2.14-6.3-4.53-9.72-6.23-5.36-2.66-10.94-4.89-16.47-7.19-1.03-.43-2.29-.5-3.43-.42-5.82.4-11.72.33-17.32,2.18-2.82.93-5.62,2.1-8.16,3.61-1.62.96-2.75,2.76-4.19,4.28-4.1-5.33-9.91-7.64-15.26-10.63-1.18-.66-2.33-1.47-3.3-2.41-1-.97-.54-1.81.7-2.24,2.37-.82,4.73-1.69,7.12-2.44,2.11-.66,4.27-1.19,6.4-1.78,5.91-1.62,11.99-2.82,17.98-1.55,2.81.59,5.33.29,8,.38,3.71.11,7.42,1.01,11.07,1.85,4.79,1.1,9.68,2.07,14.23,3.85,5.4,2.11,10.62,4.81,15.69,7.64,6.06,3.38,11.4,7.75,15.32,13.57,2.06,3.06,3.76,6.36,5.55,9.59,2.58,4.65,5.27,9.25,7.58,14.03,2.86,5.91,5.88,11.79,6.67,18.47.03.29.11.63.29.83,2.76,2.95,2.73,6.72,3.05,10.37.56,6.3,1.16,12.6,1.55,18.92.11,1.84-.48,3.72-.65,5.6-.09,1,.1,2.02.02,3.03-.38,4.65-1.02,9.3-1.15,13.96-.09,3.59.49,7.19.69,10.8.17,3.01.31,6.03.24,9.05-.01.66-.97,1.89-1.45,1.86-2.57-.12-5.12-.56-7.84-.9.62-1.97,1.22-3.55,1.6-5.19.19-.84.35-2.1-.1-2.6-2.88-3.14-1.77-6.8-1.68-10.37.13-4.99.2-9.97.14-14.96-.03-2.7-.32-5.4-.63-8.08-.88-7.6-1.79-15.19-2.78-22.77-.43-3.27-1.19-6.51-1.56-9.79-.22-1.95.06-3.95.1-5.92.04-1.76.29-3.56,0-5.26-.13-.77-1.36-1.36-2.09-2.03-.43.79-1.1,1.54-1.26,2.38-1.28,6.52.49,12.87,1.18,19.29.73,6.84,1.27,13.7,2.04,20.54.52,4.6,1.6,9.15,1.89,13.76.26,4.18-.2,8.41-.34,12.62l-.02-.05ZM271.01,43.22c.02-.3.04-.6.05-.91-.65-.19-1.3-.55-1.95-.55-1.69-.01-3.39.09-5.09.21-2.69.2-5.44.18-8.04.76-4.26.95-8.53,2.03-12.59,3.59-2.71,1.04-5.63,2.51-7.49,4.64-6.69,7.64-12.95,15.67-19.42,23.51-5.35,6.47-9.32,13.76-12.93,21.27-.33.7-.57,1.44-.88,2.15-1.18,2.73-2.3,5.48-3.59,8.15-.26.54-1.2,1.11-1.78,1.06-1.58-.12-3.13-.57-4.16-.78-1.13.68-2.05,1.7-2.7,1.55-2.86-.64-4.44-.07-6.13,2.32-.59.83-1.71,1.28-2.6,1.88-.35.23-.87.3-1.09.61-1.18,1.61-2.44,3.18-1.73,5.46.18.56-.05,1.45-.42,1.94-3.6,4.71-5,10.34-6.58,15.86-.24.82.69,2.29,1.49,3,.66.58,2.05.84,2.87.55.54-.19.75-1.59.93-2.49.68-3.47.99-7.04,2.01-10.39.96-3.15,2.92-5.83,5.33-8.23,1.18-1.17,1.65-2.26,3.66-1.5,2.03.78,3.43-.43,4.18-2.48.31-.87,1.28-1.49,1.8-2.06,1.38,1.09,2.41,2.58,3.46,2.6,1.96.03,2.74.89,3.4,2.68.72-.75,1.3-1.48,1.55-2.31.37-1.24.5-2.56.73-3.84.16-.88.33-1.77.49-2.65-.78-.12-1.56-.25-2.65-.42,1.44-2.62,2.83-5.14,4.28-7.78.72.31,1.31.56,1.68.72,1.07-3.21,1.67-6.54,3.22-9.34,3.35-6.06,7.15-11.87,10.86-17.72.89-1.4,2.12-2.59,3.21-3.87,1.92-2.25,3.84-4.49,5.76-6.73.35-.41.71-.82,1.09-1.21,2.22-2.29,4.44-4.59,6.68-6.87,1.18-1.2,2.27-2.53,3.61-3.52,5.33-3.93,11.7-4.87,17.98-6.11,3.86-.76,7.67-1.82,11.5-2.74h0ZM273.01,57.48c-.04-.36-.07-.72-.11-1.08-2.87.17-5.79.08-8.61.56-4.93.83-9.63,2.03-13.09,6.38-1.14,1.42-1.97,2.89-2.9,4.39-2.56,4.12-7.27,6.69-8.52,11.77-.02.06-.12.1-.17.16-1.73,2.07-3.54,4.07-5.13,6.24-.46.63-.27,1.72-.4,2.59-.1.7,0,1.6-.4,2.04-.87.97-2.39,1.51-2.96,2.59-1.79,3.4-3.32,6.95-4.8,10.5-.24.58.26,1.48.42,2.23.75-.29,1.81-.37,2.21-.92,1.02-1.43,1.83-3.02,2.57-4.62,2.99-6.48,6.7-12.4,12.43-16.87.8-.62,1.4-1.62,1.84-2.56,2-4.2,3.86-8.36,9.81-7.69,1.43.16,3.35-.14,4-2.11.66-1.97-.69-2.98-1.93-4.05-.09-.08-.07-.28-.13-.61.52-.43,1.22-.82,1.66-1.4.59-.78.97-1.71,1.44-2.57.42-.77.66-1.84,1.31-2.25,1-.63,2.27-.9,3.46-1.15,2.65-.57,5.32-1.04,7.98-1.56h.02ZM386.54,62.01c-.91-.41-1.74-.52-2.14-.99-1.9-2.28-3.6-4.75-5.57-6.96-.7-.78-2.03-1.5-2.99-1.4-.91.09-2.49,1.41-2.4,1.97.19,1.17,1.14,2.34,2.03,3.25,1.38,1.41,3.1,2.49,4.47,3.9,1.36,1.41,2.42,3.11,3.74,4.57.51.56,1.36.81,2.06,1.2.26-.65.69-1.28.76-1.94.12-1.22.04-2.46.04-3.59h0ZM318.3,41.17c2.06,1.18,5.43.22,6.5-1.73-2.79-1.74-4.44.54-6.5,1.73ZM275.36,56.75c-.09-.11-.16-.28-.25-.29-.12-.02-.26.09-.39.14l.35.41c.1-.09.19-.18.29-.26Z"/>
  <path class="cls-3" d="M390.41,159.25c-.98,0-1.61.12-2.19-.02-6-1.41-11.65.28-17.35,1.83-2.17.59-4.53.57-6.64,1.29-4,1.36-7.84,3.18-11.84,4.55-1.77.61-3.56.85-4.36,2.88-.06.16-1.16.07-1.68-.14-7.2-2.89-14.4-5.81-21.57-8.79-1.12-.47-2.14-1.22-3.11-1.97-2.56-1.98-4.98-1.24-6.29,1.85-.98,2.31-2.17,4.53-3.62,7.54-1.25-1.45-2.24-2.31-2.89-3.38-3.51-5.78-6.6-11.85-10.49-17.36-3.11-4.41-7.03-8.3-10.88-12.13-1.11-1.1-3.2-1.54-4.89-1.66-6.27-.46-12.55-.79-18.83-.91-4.98-.1-9.96.18-14.94.3-2.5.06-5.01.03-7.49.28-.93.09-2.32.67-2.58,1.37-.79,2.13-2.47,2.73-4.41,3.31-.05-.3-.22-.65-.12-.86,2.45-5.14,4.9-10.28,7.44-15.37.54-1.08,1.52-1.94,2.12-3,.81-1.44,1.3-3.08,2.19-4.46,1.7-2.62,3.55-5.15,5.41-7.67,1.62-2.19,3.44-4.25,5-6.48,3.08-4.41,6.53-8.42,10.34-12.26,4.19-4.22,9.04-7.27,14.02-10.2,4.7-2.76,9.75-4.91,14.51-7.57,5.42-3.03,11.34-4.25,17.34-5.1,2.87-.41,5.38-1.4,7.97-2.59,2.76-1.27,5.83-1.86,9.14-2.86-.11,1.06-.2,1.99-.32,2.91-.28,2.21.57,3.23,2.66,3.82,1.28.37,2.51,1.11,3.6,1.91,4.59,3.35,9.41,6.47,13.6,10.27,5.79,5.25,11.11,10.93,14.81,18.07,2.88,5.56,6.94,10.5,10.17,15.89,2.67,4.46,5.24,9.06,7.21,13.85,2.13,5.21,3.62,10.69,5.2,16.1,1.31,4.48,2.37,9.04,3.48,13.58.23.95.19,1.97.29,3.18h-.01Z"/>
  <path class="cls-3" d="M248.31,230.12c2.81-.48,5.61-1.23,8.43-1.36,4.12-.19,8.25,0,12.38.15,2.87.11,5.54,2.57,8.6.8.09-.05.33.02.43.11,4.24,3.85,10.49,4.82,14.01,9.6,2.53,3.43,5.29,6.58,6.38,11.11.9,3.75,2.76,7.7,6.69,9.82.41.22.78.77.88,1.23.88,3.84,2.82,7.47,2.35,11.57-.1.88-.27,1.76-.43,2.63-.44,2.37-.89,4.73-1.36,7.09-1.11,5.68-2.84,11.34-6.69,15.58-2.26,2.49-3.51,5.92-6.97,7.58-2.75,1.32-4.96,3.78-7.41,5.73-.18.14-.37.34-.58.38-4.57.69-7.29,4.75-11.31,6.27-2.72,1.03-5.79,1.55-8.7,1.53-4.5-.03-9.07-.33-13.47-1.24-3.34-.69-7.04-1.81-9.51-3.96-3.69-3.22-8.87-4.3-11.66-8.6-.54-.83-1.06-1.67-1.4-2.77,2.5,1.85,4.81,1.79,6.98-.15.39-.35.75-1.32.54-1.64-2.04-3.16-4.21-6.24-6.32-9.37-.34-.51-.59-1.1-.77-1.68-1-3.21-2.39-6.37-2.81-9.65-.41-3.23.11-6.6.36-9.9.63-8.39,3.52-16.02,8.33-22.84,1.74-2.47,4.14-4.51,6.36-6.61.55-.52,1.59-.76,2.39-.72,2.61.13,3.81-1.09,3.7-3.72-.04-.95.16-2.21.77-2.82,1.34-1.36,1.73-2.37-.52-3.44l.32-.71h0ZM299.59,271.44c-.92-4-.65-7.97-2.94-11.62-1.22-1.94-1.91-4.19-3.62-5.93-1.96-2-3.35-4.62-5.48-6.36-4.58-3.72-9.82-6.5-15.45-8.28-3.65-1.15-7.47-2.37-11.39-.66-.59.26-1.36.14-2.05.15-3.43.09-6.92-.13-9.92,2.06-.86.63-1.84,1.11-2.74,1.7-4.46,2.9-8.22,6.4-10.69,11.27-3.36,6.63-5.51,13.61-5.64,21-.1,5.62.35,11.33,3.08,16.5,1.72,3.26,3.17,6.75,5.43,9.6,1.62,2.05,4.28,3.35,6.64,4.7,2.04,1.16,4.24,2.13,6.49,2.81,3.71,1.14,7.47,2.39,11.3,2.81,2.56.28,5.27-.77,7.9-1.25,1.58-.29,3.19-.49,4.71-.97,3.54-1.12,6.75-2.97,10.07-4.58,3.64-1.77,4.5-5.51,7.46-7.46.13-.09.06-.44.15-.65.42-.98.83-1.97,1.29-2.93,1.24-2.59,3.05-5.06,3.63-7.79.99-4.63,1.22-9.43,1.77-14.15v.03Z"/>
  <path class="cls-3" d="M394.8,197.44c-.08-.42,0-1.02-.26-1.24-2.84-2.46-3.53-6.24-5.67-9.08-1.42-1.88-3.22-3.62-5.17-4.94-4.47-3.01-9.78-3.77-14.92-4.92-.82-.18-1.62-.48-2.51-.75.17-1.48.67-2.69-1.89-1.72-2.1.79-4.73.16-7.53.16.48-.65.61-1.01.81-1.06,6-1.43,11.8-3.63,18.07-4,4.95-.29,9.86-1.58,14.81-1.77,3.74-.14,7.54.58,11.26,1.25,1.93.35,3.18,2.77,2.71,5.26-.84,4.43-1.69,8.92-3.17,13.16-1.81,5.2-3.99,10.33-6.55,15.21-1.5,2.87-3.91,5.31-6.15,7.72-4.3,4.62-9.84,7.29-15.68,9.38-.58.21-1.25.47-1.8.35-1.72-.35-3.16-.78-4.51,1.18-.8,1.16-3.04-.13-3.15-1.96-.18-3.16-.06-6.33-.13-9.5-.08-3.46-.12-6.92-.43-10.37-.11-1.21-.73-2.51-1.48-3.49-2.88-3.73-2.35-4.14,1.89-5.87,3.99-1.63,7.92-1.47,11.94-1.76,4.77-.34,8.52,1.61,11.34,5.29,1.23,1.61,1.96,1.8,3-.04.62-1.1,1.22-1.45,1.99.11.65,1.33,1.79,2.42,2.71,3.61.16-.08.33-.16.49-.24l-.02.03Z"/>
  <path class="cls-2" d="M429.65,451.35c-1.71-2.91-3.74-5.68-5.06-8.76-2.53-5.91-4.66-12-6.97-18.01-.16-.43-.28-.91-.57-1.24-4.67-5.24-5.78-11.82-6.7-18.39-1.73-12.42-2.48-24.91-1.9-37.44.14-3.15.9-6.28.93-9.43.03-2.58-.57-5.17-.92-7.76-.81-5.87-1.54-11.75-2.5-17.6-.53-3.25-1.31-6.48-2.22-9.65-1.79-6.21-1.33-12.39-.13-18.6.01-.08.05-.16.04-.23-.25-1.16-.19-2.6-.89-3.36-.44-.49-1.99.03-3.6.14-.24-4.68.83-9.45,2.4-14.39.29.54.72,1.05.86,1.63,1.04,4.19,1.85,8.45,3.08,12.58,1.73,5.82,3.93,11.5,5.62,17.34,1.11,3.84,1.62,7.85,2.49,11.76.48,2.15,1.39,4.23,1.72,6.39,1.01,6.67,2,13.36,2.67,20.07.35,3.5,0,7.06.02,10.59.04,8.08.47,16.17-.01,24.22-.17,2.82,1.41,4.98,1.19,7.66-.21,2.66.08,5.39.45,8.05.22,1.56,1.18,2.99,1.55,4.54,1.33,5.55,2.37,11.18,3.85,16.68,1.88,6.99,4.08,13.9,6.14,20.84-.51.78-1.02,1.57-1.54,2.35v.02Z"/>
  <path class="cls-3" d="M318.72,352.67c-4.24.4-8.48.97-12.73,1.15-13.87.61-27.75,1.09-41.63,1.61-.69.03-1.41-.1-2.08.02-.7.13-1.37.48-2.05.73.71.29,1.4.75,2.14.85,1.13.14,2.29.04,3.58.04.16.69.3,1.34.38,1.67,19.08.63,37.98-.06,56.86,1.16-12.63,1.92-25.47.04-38.07,2.07,0,.31,0,.63-.01.94,7.57.24,15.15.48,22.72.72.01.28.03.56.04.83-4.35.34-8.71.67-13.06,1.01.02.31.04.62.06.93,9.9,1.22,19.9-.29,29.83.19,0,.34.02.67.02,1.01-1.84.1-3.68.29-5.53.3-6.4.02-12.79-.04-19.19-.01-.91,0-1.81.33-2.71.5.04.32.08.64.13.95,7.68.55,15.36,1.09,23.04,1.64.02.1.04.19.06.29-1.71.14-3.42.37-5.13.41-4.69.12-9.39.12-14.08.28-.64.02-1.25.73-1.87,1.12.59.32,1.18.91,1.78.93,5.07.23,10.14.36,15.21.5,1.46.04,2.91-.04,4.37,0,3.25.09,6.49.21,9.85.32.08,1.32.12,2.02.2,3.29-2.41-2.8-5.22-2-7.7-1.96-5.24.07-10.47.55-15.71.89-2.23.15-2.82,1.36-1.92,3.22,5.32-1.42,10.52-1.47,15.72.12-5.05.19-10.39,3.42-15.05-1.09-1.21-.16-2.45-.21-3.63-.51-5.14-1.33-10.26-2.73-15.37-4.15-.64-.18-1.31-.56-1.75-1.05-5.15-5.71-12.18-8.16-18.94-11.12-3.86-1.69-7.64-3.56-11.44-5.39-1.94-.94-3.86-1.93-5.74-2.98-2.74-1.53-5.5-3.04-8.14-4.74-1-.64-1.69-1.76-2.32-3.03,6.67,2.05,13.3,3.31,20.36,3-1.19,1.13-4.11,1.53-6.36,1.02-.37-.09-.74-.37-1.1-.35-.53.03-1.05.24-1.58.37.34.53.59,1.39,1.04,1.51,1.24.34,2.57.51,3.86.49,5.6-.11,11.2-.45,16.8-.45,10.5-.02,21,.15,31.5.21,5.1.03,10.2,0,15.3,0v.55h.04Z"/>
  <path class="cls-3" d="M266.86,166.53c.82.09,1.63.18,2.65.29-.13.57-.26,1.11-.41,1.77,2.15.2,4.31.41,6.47.61v.63c-1.31.08-2.63.12-3.94.24-1.8.16-3.6.04-5.12,1.53-2.15,2.12-5.09,1.59-7.76,1.73-4.05.22-8.1.3-12.15.47-.35,0-.69.18-1.04.62,6.44,1.23,12.96,1.56,19.47,2.15h-5.59c0,.22-.01.44-.02.66h8.32c-1.07.83-1.56,1.2-2.64,2.04h14.17v.72c-11.7,1.95-23.41,1.54-35.17-.03.07-.24.06-.42.14-.48.7-.56,1.42-1.1,2.14-1.64-1.05-.24-2.1-.66-3.15-.68-1.6-.02-3.2.24-4.85.38.36-1.83-1.09-2.95-4.36-3.36.67-.6,1.03-1.18,1.53-1.34,2.88-.96,3.13-1.95.54-4.42,1.35-.78,2.71-1.35,3.79-2.25.72-.6,1.04-1.66,1.34-2.18,1.24-.75,2.28-1.38,3.32-2.02-1.28-.86-2.56-1.73-3.9-2.63,6.75-1.52,13.85-1.01,21.07-.85-.33.49-.57.84-.96,1.43,3.05.19,5.87.36,9.38.57-1.88.34-3.08.56-4.28.78-.02.14-.05.27-.07.41.82.23,1.64.46,2.46.69.02.11.04.22.07.33-1.1.2-2.2.4-3.3.6-.02.1-.05.19-.07.29,2.84.34,5.68.67,8.52,1.01,0,.09.01.18.02.28-2.23.3-4.45.59-6.68.89l.09.75h-.03Z"/>
  <path class="cls-2" d="M413.25,316.85c-1.16-3.89-2.47-7.73-3.43-11.67-1.21-4.99-2.09-10.07-3.19-15.09-.43-1.95-1.21-3.82-1.58-5.78-1.02-5.44-2.2-10.88-2.76-16.37-.44-4.26-.1-8.61,0-12.92.13-5.7.28-11.4.61-17.09.1-1.69.83-3.35,1.27-5.02.2.02.41.03.61.05.37,1.13.83,2.24,1.09,3.4,1.27,5.75,2.69,11.48,3.67,17.28.94,5.54,1.44,11.16,2.08,16.74.73,6.35,1.44,12.71,2.11,19.07.36,3.43.86,6.88.83,10.31-.05,5.67-.47,11.34-.73,17.01-.19.03-.39.06-.58.08h0Z"/>
  <path class="cls-2" d="M405.54,405.29c-.9-1.34-2.03-2.59-2.67-4.05-4.59-10.39-7.25-21.13-6.16-32.63.48-5.14.44-10.33.83-15.49.14-1.8.89-3.54,1.35-5.32.13-.51.43-1.09.3-1.54-1.37-4.87.46-9.66.36-14.49-.06-2.9-.01-5.8.43-8.76.23.55.54,1.07.68,1.64.69,2.92,1.48,5.83,1.96,8.79,1,6.22,2.22,12.45,2.55,18.72.13,2.46.73,4.85.68,7.29-.04,2.15-.08,4.31-.3,6.44-.85,8.58-.67,17.12.38,25.68.47,3.83.49,7.72.66,11.58.03.62-.23,1.25-.35,1.88-.23.08-.46.15-.69.23v.03Z"/>
  <path class="cls-2" d="M395.13,319.95c.87,18.51-.83,36.95-1.07,55.31-4.74-1.15-6.82-5.09-9.31-8.41-2.21-2.93-3.86-6.28-5.69-9.49-.26-.46-.36-1.46-.08-1.7,3.66-3.17,3.99-8.13,6.44-11.87,4.66-7.1,5.33-15.71,9.28-23.03.15-.27.28-.54.43-.81Z"/>
  <path class="cls-3" d="M247.31,327.42c-2.37.76-4.13-.62-5.75-1.72-2.72-1.85-5.11-3.74-8.76-3.99-1.99-.13-3.99-2.29-5.68-3.87-1.13-1.05-1.44-3.51-2.6-3.9-2.66-.9-2.52-3.59-4.13-5.03-.34-.3-.88-.62-.92-.97-.31-2.64-1.73-4.81-2.84-7.12-3.21-6.66-3.42-14.07-5.21-21.09-.09-.37-.15-.76-.17-1.15-.14-3.43-.42-6.86-.37-10.28.12-7.25.77-14.42,4.77-20.79.28-.45.54-.92.86-1.35.12-.16.36-.23,1.12-.09-1.24,3.25-2.49,6.49-3.73,9.74-.39,1.02-1,2.03-1.09,3.09-.3,3.65-.7,7.33-.53,10.98.27,5.66,1.08,11.29,1.48,16.95.33,4.64,2.43,8.64,4.09,12.83.94,2.37,1.84,4.76,2.67,7.17,1,2.91,2.61,5.29,5.21,7.03,1.26.84,2.42,1.91,3.43,3.06,2.54,2.87,5.8,4.49,9.27,5.95,3.05,1.28,5.91,3.03,8.86,4.58l.02-.03Z"/>
  <path class="cls-3" d="M212.56,218.6c.53-2.24.64-3.92,2.84-4.11.28-.02.62-.23.79-.45,2.59-3.32,6.55-4.54,10.08-6.25,3.61-1.75,7.59-2.76,11.4-4.11,1.36-.48,2.65-1.24,4.05-1.52,5.63-1.16,11.27-2.8,16.95-3.05,3.86-.17,8.04-1.08,11.93.92,1.55.79,3.53.67,5.26,1.17,4.76,1.37,9.52,2.73,14.2,4.35,1.93.67,3.62,2,5.37,3.24-2.67-.91-5.35-1.8-8.02-2.72-4.2-1.45-8.32-3.18-12.61-4.29-2.44-.63-5.14-.26-7.72-.33-2.04-.05-4.08-.18-6.12-.09-4.3.19-8.99-.51-12.81.98-6.16,2.4-12.83,2.81-18.77,5.68-5.79,2.79-11.52,5.69-16.82,10.59h0Z"/>
  <path class="cls-2" d="M399.03,222.08c-1.11-1.71-2.22-3.41-3.32-5.13.86-.95,1.7-1.92,2.58-2.84,1.16-1.22,2.71-2.22,3.49-3.64,2.82-5.14,5.39-10.43,8.3-15.74-.3,1.61-.5,3.25-.91,4.84-.71,2.75-1.69,5.44-2.31,8.21-.88,3.88-1.54,7.82-2.33,11.91-2.46-.57-4.52-.23-5.5,2.39h0Z"/>
  <path class="cls-3" d="M324.27,166.64c.34,2.21.56,3.6.78,5.06,1.52-1.09,2.61-1.88,3.71-2.67l.66.57c-.18,1.23-.36,2.46-.53,3.59,2.74.36,5.43.72,8.48,1.12-.89,2.48-1.7,4.76-2.51,7.03-7.38-.35-10.66-3.07-7.51-8.08-1.78.34-2.43,1.12-2.93,3.34-.1.46-.36,1.21-.64,1.25-.48.07-1.09-.21-1.53-.5-.57-.37-1.01-.93-1.54-1.37-.46-.39-.96-.72-1.71-1.27,1.67-2.56,3.3-5.06,5.26-8.07h.01Z"/>
  <path class="cls-2" d="M352.09,292.12c-3.72-4.45-.18-19.94,5.88-22.77,0,1.89.18,3.8-.05,5.66-.26,2.05-.8,4.09-1.38,6.08-.56,1.9-1.27,3.76-2.02,5.6-.72,1.78-1.57,3.52-2.43,5.44h0Z"/>
  <path class="cls-3" d="M267.92,222.38c2.28,1.06,5.18-.85,7.14,1.75.07.09.28.14.41.13,4.27-.54,7.13,2.44,10.48,4.21,2.56,1.35,5.3,2.45,7.63,4.12,2.27,1.61,4.26,3.69,6.13,5.78,1.57,1.75,3.27,3.64,4.05,5.78,1,2.74,3.7,4.07,4.66,6.68.48,1.29.88,2.61,1.32,3.92-.26.11-.53.21-.79.32-1.21-2.4-2.41-4.8-3.62-7.2-.27-.53-.44-1.44-.82-1.53-3.03-.73-3.5-3.58-4.8-5.69-.97-1.57-1.78-2.87-3.74-3.68-1.97-.81-3.32-3.04-5.2-4.22-3.75-2.36-7.7-4.41-11.54-6.65-1.32-.77-2.53-1.72-3.81-2.61-3.01,1.25-6.4.88-7.5-1.1h0Z"/>
  <path class="cls-3" d="M193.22,191.52c-.31.57-.8,1.12-.91,1.75-.23,1.37-1.07,1.73-2.15,1.3-1.4-.56-2.74-1.33-3.99-2.18-.15-.1.31-1.3.66-1.88.43-.7,1.32-1.2,1.53-1.93.39-1.3,0-2.28-1.73-2.03-1.03.15-2.09.16-3.3.24-.09-1.32-.02-2.42-.27-3.43-.25-.97-.83-1.86-1.3-2.85,1.61-1.73,3.83-1.69,5.54.04.51.52,1.5.89,2.22.81,2.96-.32,3.45.12,3.1,3.1-.22,1.83-.43,3.66-.47,5.5,0,.49.66,1,1.06,1.55h.01Z"/>
  <path class="cls-3" d="M281.96,348.45c2.03-.26,4.06-.69,6.1-.74,3.9-.1,7.83-.29,11.7.1,6.39.64,12.76.18,19.14.26,1.95.02,3.9-.24,5.85-.32.39-.02.79.2,1.3.35-1.98,1.63-40.82,2.61-43.99,1.25-.04-.3-.07-.6-.11-.89h0Z"/>
  <path class="cls-2" d="M177.37,266.79c-4.93-4.98-7.59-13.49-5.17-17.52.91,1.17,1.79,2.15,2.5,3.25,1.3,2,2.47,4.08,3.74,6.1,2.33,3.7,2.2,4.96-1.07,8.17h0Z"/>
  <path class="cls-2" d="M179.82,314.14c.39-.46,1.03-.88,1.12-1.4.26-1.37.33-2.79.39-4.19.03-.67-.07-1.35-.2-2-.07-.36-.51-.69-.49-1.02.08-1.41.27-2.82.42-4.23.98.17,1.97.34,3.09.54.37-.64.83-1.43,1.29-2.22.18.05.37.11.55.16,0,1.49.1,2.99-.02,4.47-.35,4.51-.79,9.02-1.19,13.52-.64.17-1.28.34-1.93.52-.3-.09-.59-.18-.89-.28-.71-1.29-1.42-2.58-2.13-3.88h0Z"/>
  <path class="cls-3" d="M185.52,219.15c2.92-.76,6.7-1.22,6.32-5.84-1.18-1.3-2.41-2.66-4.11-4.54h7.82c-1.89,6.3-3.69,12.31-5.64,18.84-1.84-1.56-3.09-2.49-2.82-4.74.12-1.01-.88-2.16-1.58-3.71h0Z"/>
  <path class="cls-2" d="M150.87,183.87c-1.02,3.13-4.71,4.5-7.35,2.84-.77-.48-1.68-.76-2.53-1.12-2.9-1.21-5.8-2.4-8.56-4.05,6.23.36,12.61-1.18,18.44,2.32h0Z"/>
  <path class="cls-3" d="M197.29,172.55c-2.1.28-4.23.47-6.3.9-.69.14-1.58.8-1.78,1.42-.19.59.39,1.43.76,2.51-1.46,1.6-3.47,1.66-5.89.35-1.44-.79-3.46.92-3.65,2.91h-3.41c1.17-1.54,2.86-2.83,2.99-4.27.08-.87-2.25-1.96-3.65-3.07,3.48-.17,6.92-.3,10.36-.51,3.5-.21,7-.5,10.5-.76.02.18.05.35.07.53h0Z"/>
  <path class="cls-3" d="M324.41,232.62c2.59,2.96,4.29,6.41,5.43,10.19.31,1.02.87,1.95,1.19,2.97.51,1.61.91,3.26,1.35,4.89.81,2.98,1.61,5.97,2.45,8.94.62,2.21,1.37,4.39,1.89,6.63.14.62-.36,1.39-.56,2.1-.48-.57-.98-1.13-1.42-1.73-.17-.24-.24-.57-.28-.88-.66-4.67-1.15-9.37-2.05-13.99-.36-1.86-1.66-3.53-2.4-5.34-1.12-2.74-2.07-5.55-3.2-8.28-.49-1.18-1.24-2.25-1.91-3.35-.36-.59-.8-1.14-1.21-1.7.24-.15.48-.3.72-.44h0Z"/>
  <path class="cls-2" d="M171.62,294.46c-1.56-4-1.22-8.11-.7-12.23.05-.36.67-.98.85-.92.6.19,1.31.51,1.65,1.01,2.02,2.95,2.95,6.22,2.52,9.81-1.44.77-2.89,1.55-4.33,2.33h0Z"/>
  <path class="cls-3" d="M189.31,279.52c-.2-.5-.6-1.01-.58-1.51.11-4.74.14-9.5.53-14.22.18-2.12,1.19-4.16,1.69-6.27.26-1.08.19-2.24.35-3.35.14-1,.4-1.98.61-2.98l1.2.23c-4.4,8.99-2.81,18.54-3.03,27.93-.25.05-.51.11-.76.16h-.01Z"/>
  <path class="cls-3" d="M187.16,232.92c-.72,4.4-1.03,4.69-5.7,4.9-1.9.09-3.81.01-5.84.01.25-1.7.76-2.82,2.72-2.76.67.02,1.69-.32,1.98-.83.96-1.67,2.17-1.85,3.87-1.37.91.26,1.96.05,2.98.05h0Z"/>
  <path class="cls-3" d="M324.01,201.59c5.72,1.84,11.43,3.68,17.15,5.53-6.2-.41-12.83.34-17.15-5.53Z"/>
  <path class="cls-3" d="M346.25,177.57c-.31.07-.87.12-.88.21-.14,1.74-.21,3.48-.3,5.22,2.97.42,4.29-1.39,4.85-7.4.52.86.92,1.22.92,1.58,0,1.49-.17,2.99-.14,4.48.01.58.41,1.16.69,1.89-3.02,2.24-6.11,1.54-9.78-.54,1.41-1.55,2.73-2.99,4.03-4.46.24-.27.37-.65.54-.98h.07Z"/>
  <path class="cls-3" d="M298.09,209.59c4.71,2.2,9.41,4.4,14.39,6.73v1.42c-4.85-2.27-10.59-3.38-14.69-7.53.1-.21.2-.42.29-.63h0Z"/>
  <path class="cls-3" d="M304.14,304.99c2.34-5.35,4.74-10.85,7.33-16.77.83,2.67-4.81,14.66-7.33,16.77Z"/>
  <path class="cls-2" d="M170.79,310.86c-4.03,1.54-7.58-3.08-7.45-6.6,0-.4.24-.89.53-1.14.17-.14.75.01,1.02.21,1.82,1.32,3.61,2.68,5.39,4.04.49.37.92.82,1.38,1.24-.29.75-.58,1.5-.87,2.25h0Z"/>
  <path class="cls-2" d="M419.38,437.72c-.87-1.14-1.74-2.29-2.61-3.42-.28-.36-.55-.97-.89-1.01-2.91-.35-2.21-2.53-2.26-4.31-.04-1.34,0-2.69,0-4.69.69.88.99,1.13,1.12,1.44,1.72,3.97,3.42,7.94,5.12,11.92-.16.03-.32.05-.48.08h0Z"/>
  <path class="cls-3" d="M170.79,310.86c.29-.75.58-1.5.87-2.25.18-.32.54-.65.51-.94-.41-3.57.26-5.37,2.96-7.73,1.3,2.19.94,4.1-1.01,5.23.79,2.58-.83,5.34-3.33,5.69Z"/>
  <path class="cls-3" d="M235.09,229c-3.96,3.57-7.93,7.13-11.89,10.7-.21-.26-.43-.52-.64-.78,3.47-4.19,7.92-7.17,12.53-9.92h0Z"/>
  <path class="cls-3" d="M322.77,230.84c-.8-3.92-5.28-5.44-6.1-9.35.22-.15.44-.29.66-.44,2.02,3.11,4.05,6.21,6.07,9.32-.21.16-.43.31-.64.47h.01Z"/>
  <path class="cls-3" d="M358.94,185.79c3.82-1.47,7.64-2.98,12.26-1.41-4.39.51-8.33.96-12.26,1.41Z"/>
  <path class="cls-2" d="M398.64,308.49c.16,3.55.29,6.42.42,9.29l-.9.02c-1.48-2.85-.43-5.73.48-9.3h0Z"/>
  <path class="cls-3" d="M322.24,198.88c-1.01-2.95-2.09-6.13-3.18-9.32.3-.09.6-.19.9-.28.07,3.47,3.36,5.96,2.28,9.59h0Z"/>
  <path class="cls-3" d="M429.65,451.35c.51-.78,1.02-1.57,1.54-2.35,2.69,3.86,3.1,5.27,1.83,6.88-1.14-1.53-2.25-3.03-3.37-4.52h0Z"/>
  <path class="cls-3" d="M179.82,314.14c.71,1.29,1.42,2.58,2.13,3.88-.61.82-1.23,1.64-1.84,2.46-.28-.04-.57-.08-.85-.11-.05-2.02-.11-4.05-.13-6.07,0-.05.45-.1.69-.15h0Z"/>
  <path class="cls-3" d="M267.03,325.78c-2.59,2.67-5.32.79-8.06,0h8.06Z"/>
  <path class="cls-3" d="M270.89,349.47c3.07-1.94,6.02-1.87,7.98,0h-7.98Z"/>
  <path class="cls-3" d="M246.58,221.88c2.15-1.11,4.22-2.72,6.9-1.34.28.14.79-.16,1.19-.25-.09-.32-.16-.91-.28-.92-.38-.03-.92.02-1.15.27-1.83,1.98-4.36,1.8-6.66,2.24h0Z"/>
  <path class="cls-3" d="M263.86,222.58c-2.09.46-4.17.93-6.23,1.39.8-.61,1.48-1.51,2.33-1.71,1.2-.29,2.53-.07,3.8-.07.03.13.07.26.1.39h0Z"/>
  <path class="cls-3" d="M316.11,172.85c.97-1.77,1.93-3.54,2.9-5.31.2.11.39.21.59.32l-2.48,5.56c-.33-.19-.67-.37-1-.56h0Z"/>
  <path class="cls-3" d="M291.14,179.24c-2.08.14-4.17.27-6.29.41.57-2.5,2.34-2.72,6.29-.41Z"/>
  <path class="cls-3" d="M171.62,294.46c1.44-.78,2.89-1.56,4.33-2.33.06,2.3-1.66,4-3.42,3.38-.13-.23-.26-.45-.4-.68-.17-.12-.34-.24-.51-.37h0Z"/>
  <path class="cls-3" d="M340.44,177.42c-.48,1.64-.91,3.3-1.49,4.91-.07.2-1.05.29-1.41.09-.27-.16-.45-.99-.27-1.31.73-1.33,1.61-2.59,2.44-3.87.25.06.49.13.74.19h-.01Z"/>
  <path class="cls-3" d="M231.6,179.46h9.53c0,.24-.01.47-.02.71-3.19.11-6.39.49-9.57,0,.02-.23.05-.47.07-.7h-.01Z"/>
  <path class="cls-3" d="M230.31,311.82c-2.49-1.47-4.38-3.16-5.41-6.02,2.64.49,5.5,3.66,5.41,6.02Z"/>
  <path class="cls-3" d="M294.9,313.99c1.46-1.16,2.91-2.33,4.37-3.49.12.11.24.23.35.34-.6.66-1.11,1.44-1.82,1.96-.79.6-1.75.98-2.64,1.46l-.27-.27h.01Z"/>
  <path class="cls-3" d="M182.85,318.29c.64-.17,1.29-.35,1.93-.52-.72,1.25-1.43,2.49-2.15,3.73-.29-.15-.58-.3-.87-.45.36-.92.73-1.84,1.09-2.76Z"/>
  <path class="cls-3" d="M419.38,437.72c.16-.02.32-.05.48-.08.46,1.46.93,2.92,1.39,4.38l.05-.02c-1.33-.16-2.09-.72-1.86-2.23.1-.66-.04-1.37-.06-2.05h0Z"/>
  <path class="cls-3" d="M346.2,177.58c.41-.09,1.18-.21,1.17-.26-.07-.84-.24-1.67-.39-2.51l-.59.06c-.05.9-.1,1.8-.15,2.7h-.05,0Z"/>
  <path class="cls-3" d="M421.25,442.02c.21.46.43.93.64,1.39.1-.07.21-.14.31-.21-.3-.4-.6-.8-.9-1.2l-.06.02h0Z"/>
  <path class="cls-3" d="M320.3,352.33c.32-.02.64-.03.97-.05-.15.16-.27.36-.45.47-.09.05-.27-.04-.41-.07-.03-.12-.07-.23-.1-.35h0Z"/>
  <path class="cls-2" d="M172.13,294.83c.13.23.26.45.4.68-.13-.23-.26-.45-.4-.68Z"/>
  <path class="cls-3" d="M127.04,427.99s-.11-.11-.11-.15c0-.05.09-.08.14-.13.04.05.11.11.11.15,0,.05-.09.08-.14.13Z"/>
  <path class="cls-3" d="M336.86,523.3c-.11-.04-.23-.07-.34-.11.12-.11.24-.23.36-.34l-.03-.05v.53l.02-.03h0Z"/>
  <path class="cls-1" d="M336.83,523.33v-.53c-.02.07-.04.14-.05.21h.16c-.04.1-.07.21-.11.31h0Z"/>
  <path class="cls-1" d="M275.36,56.75c-.1.09-.19.18-.29.26l-.35-.41c.13-.05.27-.16.39-.14.09.01.16.19.25.29Z"/>
  <path class="cls-3" d="M234.09,286.99c-.14-1.46-.29-2.92-.43-4.38.25-.03.5-.07.74-.1,1.59,2.64,2.78,5.66,4.87,7.83,2.67,2.78,6.06,4.87,9.14,7.26.47.37,1.07.63,1.43,1.08,2.02,2.58,4.68,4.2,7.84,4.69,1.65.26,3.63.1,3.81-2.3-.2,1.02-.4,2.03-.67,3.35-2.29-.65-5.31.93-7.97-1.52-1.45-1.33-3.51-2.01-5.33-2.93-3.99-2.03-6.73-5.14-8.3-9.35-.42-1.12-1.13-2.22-1.98-3.04-.58-.55-1.64-.59-2.49-.86l-.66.27Z"/>
  <path class="cls-3" d="M264.95,302.01c1.15-.4,1.77-.79,2.41-.81,5.53-.16,10.38-2.11,14.79-5.37,1.58-1.17,1.76-1.04,3.13.62-2.69,3.55-15.81,7.41-20.33,5.55h0Z"/>
  <path class="cls-3" d="M289.64,293.38c-.13-2.22-.27-3.84-.3-5.46,0-.5.15-1.17.5-1.46,1.82-1.56,3.1-3.26,3.03-5.88-.03-1.01.88-2.05,1.67-3,.06,5.14.3,10.31-2.8,14.82-.42.61-1.53.74-2.09,1v-.02Z"/>
  <path class="cls-3" d="M276.58,259.13c-3.35-.95-6.03-1.45-8.1-3.53-1.29-1.3-1.08-2.52.08-3.59,1.59-1.48,3.25-1.48,4.24-.2,1,1.3,2.11,2.53,2.95,3.92.47.78.48,1.84.85,3.4h-.02Z"/>
  <path class="cls-3" d="M279.96,294.36c-2.35,1.43-4.68,2.9-7.08,4.25-.31.18-.94-.27-1.44-.36-.57-.1-1.16-.13-1.73-.19.06.4.12.81.18,1.21.52-.24,1.18-.35,1.52-.74,2.25-2.51,5.26-3.54,8.15-4.81.13.21.26.43.39.64h.01Z"/>
  <path class="cls-3" d="M271.43,303.95c2.77-.53,5.55-1.06,8.32-1.6.04.19.08.37.12.56-2.75.64-5.5,1.29-8.25,1.93-.06-.3-.12-.59-.18-.89h-.01Z"/>
  <path class="cls-1" d="M439.38,669.33"/>
  <g>
    <path class="cls-5" d="M802.55,213.88c-5.71,1.57-10.52,6.67-10.91,12.5-1.01,6.15-1.3,11.45-.58,17.62.33,4.26.97,7.74,3.13,11.08,3.06,4.78,5.86,6.91,11.18,3.31,2.11-1.32,2.82-2.59,4.33-4.78,4.33-6.4,6.85-13.29,8.22-20.58,1.9-9.67-3.29-22.79-15.36-19.15h0ZM802.03,212.3c14.53-7.04,32.32,5.13,32.44,21.12.37,13.5-7.83,24.99-17.53,33.33-19.36,14.82-36.27-1.3-34.16-22.77.21-6.46,2.69-13,5.53-18.63,2.42-6.02,7.76-10.62,13.7-13.06h.02v.02Z"/>
    <path class="cls-5" d="M960.09,242.14c5.4-11.78,17.02-22.69,30.72-22.25,16.83,2.19,20.89,20.89,13.85,34.2-3.33,7.68-9.92,15.34-18.28,17.74-10.29,3.87-25.24.33-28.42-11.43-1.78-6.17.19-12.61,2.15-18.28h0l-.02.02ZM961.68,242.59c-1.12,4.6,0,10.85,3.93,13.41,3.4,2.05,6.31,1.14,9.94.75,3.5-.54,7.6-1.82,10.39-3.29,3.93-2.19,7.93-6.89,9.25-11.43.23-.95.46-2.17.56-3.11.79-5.47-3.6-10.83-9.25-10.5-9.56.04-21.96,3.77-24.82,14.18h0v-.02Z"/>
    <g>
      <path class="cls-5" d="M595.61,307.37c-18.57,21.63-42.75,16.5-49.06-11.92-1.82-7.14-1.24-15.03.64-21.99,2.96-14.18,9.07-27.68,16.71-39.89,9.09-15.42,19.58-30.64,32.79-43.08,7.99-7.31,16.6-13.87,25.19-20.39,28.63-21.45,58.5-41.09,88.52-60.51,4.7-2.98,14.2-8.82,16.77-12.17,13.21-15.61,22.48-34.49,30.33-53.24,1.68-5.05,2.96-11.97,2.22-17-.04-.08.17.46.81.83.75.43,1.22.33,1.08.37-9.67,4.12-16.15,13.79-21.32,22.96-6.69,12.38-9.98,26.19-15.3,39.15-5.13,13.54-11.05,26.73-16.25,39.75-10.56,26.23-17.14,53.74-23.91,81.27-3.52,14.18-12.52,48.09-15.22,61.88-3.97,20.76-6,41.67-8.09,62.89-5.69,47.74-7.95,111.83-52.38,141-33.5,20.85-74.44,18.98-73.7-29.5.06-3.64.33-7.27.89-10.85.14-1.04,1.7-.85,1.66.17-.25,13.46,1.37,28.49,11.08,38.46,9.69,9.58,24.68,7.31,36.48,2.71,42.21-15.65,51.24-60.82,55.75-101,3.17-28.34,4.14-56.95,7.89-85.46,2.59-25.19,13.25-59.79,19.77-84.46,7.62-27.74,15.24-55.83,26.62-82.45,5.71-13.39,11.78-26.15,17.08-39.25,4.16-9.83,7.58-20.31,11.68-30.14,6.38-13.97,14.93-27.86,28.61-36.02,5.42-3.46,14.39-4.68,17.53,3.48,1.16,3.23.99,5.51.95,7.64-.39,6.13-1.32,11.66-3.44,17.43-8.67,19.85-18.78,39.25-33.06,55.69-1.53,1.64-2.92,2.98-5.57,5.07-2.9,2.38-10.68,6.81-13.93,8.92-18.18,11.16-36.19,22.69-54.05,34.32-11.92,7.76-23.7,15.67-35.25,23.93-11.32,8.28-23.04,16.35-32.58,26.6-9.65,10.19-17.82,21.65-25.3,33.7-9.63,14.55-16.85,30.99-19.09,48.3-.41,30.08,22.13,46.45,45.19,21.74.72-.79,1.93.27,1.24,1.08h.04Z"/>
      <path class="cls-5" d="M806.32,158.46c3.35-6.56,5.61-14.99,4.18-21.8-6.15,3.58-10.79,10.62-15.65,16.27l-10.33,13.23c-11.41,15.05-25.17,30.78-37.43,45.42-8.55,10.56-17.08,22.32-28.26,31.96-2.65,2.48-3.42,4.22-5.78,7.78-3.15,4.72-7.31,9.17-12.71,12.4-4.43,2.46-7.85,3.81-12.61,4.93-1.82.31-4.18.64-7.27-.33-8.12-2.65-9.52-12.11-8.22-18.98,1.37-8.82,7.56-16.69,16.37-19.5,11.18-3.37,22.38,6.21,23.89,17.14.58,3.95-.66,8.16-.33,10.97.33,2.98,2.15,6.04,4.26,8.38,8.38,9.73,21.99,4,31.78-1.43,6.07-3.37,11.72-8.88,17.45-12.77,5.96-4.2,12.63-8.72,18.78-12.57.77-.54,1.72.6,1.06,1.26-6.44,7.72-13.33,14.88-19.87,22.27-3.11,3.44-7.22,8.59-11.08,11.2-8.98,6.96-19.38,12.84-31.82,11.92-16.58-1.32-30.53-18.8-27.39-35.34.12-1.72.23-1.26-.21-2.38-.25-.6-1.26-1.95-1.82-2.28-.48-.25-.08-.21-.31-.29-2.03.64-4.12,2.48-5.03,4.7-.5.99-.91,3.27-.97,4.43,0,1.39.04.58-.68,0-.33-.27-.77-.52-1.1-.6-.72-.17-.52.04.08-.04,7.02-1.18,13.02-4.66,17.12-10.52,1.78-2.59,5.09-7.29,8.09-9.61,4.68-3.79,9.07-7.72,13.27-12.17,10.19-11.47,22.3-24.57,33-35.69,11.16-11.32,23.12-25.03,33.93-37.01,3.83-4.14,7.66-8.3,12.01-12.15,2.15-1.74,4.37-3.85,7.33-4.26,5.38-.14,4.14,6.69,3.68,10.16-.85,5.8-3.02,11.26-6.04,16.09-.56.89-1.93.1-1.43-.83h.04v.02Z"/>
      <path class="cls-5" d="M913.8,254.66c-10.52,5.82-19.29,13.37-26.95,22.52-8.98,10.39-14.8,8.86-24.9,1.04-3.29-2.42-11.18-8.03-14.49-10.12-1.78-1.04-3.81-2.4-5.22-2.44,0,0,.12.04.17,0-.12.02-.35.17-.5.25-.7.31-2.24,2.22-2.92,3.37-.79,1.1-.87,1.7-2.73,3.06-2.28,1.66-6.15,1.22-8.01-1.06-3.81-4.45.1-10.68,2.07-14.88,4.04-7.7,9.73-14.91,16.25-20.6,6.71-6.52,13.54-13.44,19.73-20.33l.62-.75s.12-.14.1-.1c-.04.14-.06-.06-.56,1.37-2.05,6.98,5.78,13.04,11.82,9.54-11.51,8.55-25.09,7.33-31.59-6.46l6.6,3.19c-10.45-.54-16.64,10.25-18.09,19.67-.06.48-.52.83-.99.72-.31-.06-.56-.29-.64-.56-1.01-3.02-1.43-6.17-1.43-9.44-.25-11.03,8.28-21.61,19.36-23.58,2.19-.48,4.35.37,5.67,2.01,1.04,1.35,2.63,3.25,3.79,3.91,1.8.93,1.51.54,3.29-.21,2.22-1.1,4.02-3.37,6.98-4.6,4.33-1.9,10.06.58,11.47,5.2,1.28,3.17-.19,7.18-1.84,9.32-4.26,5.86-9.46,10.52-14.8,15.09-8.65,7.29-18.84,12.92-24.61,22.98-1.06,1.66-2.05,3.48-2.67,4.95v-.27c.29-3.06-2.22-5.96-5.36-6.19-1.82-.25-4.04.83-4.76,1.84-.06.1.35-.41.64-.81,7.04-9.42,15.24-10.16,24.12-2.67,3.42,2.61,10.6,8.96,13.91,11.84,2.09,1.78,4.24,3.81,6.38,5.28.6.35.56.39,1.12.5,3,.31,5.49-2.22,7.87-4.29,2.9-2.65,5.98-5.44,9.25-7.93,6.52-5.01,13.73-8.92,21.22-11.88.91-.39,1.61,1.04.7,1.49h-.04v.02Z"/>
      <path class="cls-5" d="M940.44,190.4c-2.73,11.28-6,22.21-8.82,33.45-2.69,11.49-6.96,22.83-12.05,33.58-.21.58-.81,1.1-1.2,1.55-6.94,7.78-13.06,15.59-22.92,20.39-11.32,6-24.43,6.83-31.61-5.38-.39-.66.25-1.51.99-1.32,5.05,1.12,9.63,1.2,12.73-.14,2.84-1.37,6.67-4.58,9.3-6.62,6.52-5.88,14.28-11.78,21.65-17.04l-1.2,1.55c9.83-13.83,15.92-30.06,23.66-45.15,2.61-5.2,5.26-10.37,7.95-15.51.41-.85,1.86-.31,1.53.64h-.02Z"/>
      <path class="cls-5" d="M961.27,261.99c-3.66,11.41-15.92,20.33-28.42,17.14-6.23-1.14-13.89-4.12-16.58-10.12-2.32-4.93-4-10.87-2.03-17.47.17-.6.81-.93,1.39-.75,5.67,2.22,9.67,4.66,13.91,8.3,3.19,2.42,4.1,5.53,7.43,7.43,7.8,4.53,16.4.39,22.9-5.4.58-.66,1.74.02,1.43.85h-.02v.02Z"/>
      <path class="cls-5" d="M901.96,183.4c13.35-6.85,27.8-11.72,42.56-14.64,7.41-1.47,14.95-4,22.61-2.79,7.93,1.12,15.44,3.46,22.03,8.57.56.43.46,1.35-.17,1.66-7.22,3.62-14.28,5.22-21.86,6.33-7.08,1.18-14.16-.6-21.26-.58-7.18,0-14.37.27-21.55.79-7.25.46-14.49,1.3-21.86,2.24-.89.14-1.32-1.18-.5-1.57h0Z"/>
      <path class="cls-5" d="M1016.6,225.51c.81,6.79,1.59,13.64,2.28,20.41.31,2.98.81,5.26,3.04,7.06,6.94,5.26,15.26.31,19.91-6.58,1.39-1.82,1.95-3.04,3.97-4.86,1.8-1.57,4.35-2.42,6.75-2.13,5.07.54,7.95,5.22,9.81,8.12,1.18,1.72,2.3,4.51,2.77,6.02.87,2.32,2.3,4.8,3.77,6.4-1.28-2.01-5.34-2.36-7.33-.77-.33.23-.35.25-.35.19,1.3-3.35,3.21-8.98,4.82-12.48,2.3-5.28,5.2-10.81,8.03-15.84,5.13-9.36,9.85-19.81,14.91-29.29.33-.72,1.53-.58,1.64.25.6,3.56.91,7.14,1.01,10.76.17,14.16-4.06,28.07-9.73,40.93-1.41,3.17-2.86,6.02-4.6,9.4-1.35,2.42-3.56,6.36-6.62,8.4-4.14,3.04-10.45,1.78-13.15-2.26-1.61-2.24-2.05-3.73-3.04-5.86-.89-1.86-1.68-4.29-2.05-6.09-.31-2.26-1.95-5.32-2.67-6.46-.08-.12.37.29,1.28.35.21.02.48.04.7-.02.46-.04,1.08-.25,1.35-.58,0-.08-.52.39-.99.93-5.8,6.85-13.95,12.77-23.54,11.94-8.84-.79-16.17-8.38-14.84-17.39.37-6.85.79-13.64,1.24-20.47.06-.99,1.53-1.06,1.66-.06h-.04v-.02Z"/>
      <path class="cls-5" d="M1126.26,218.66c-2.88-6.07-9.85-5.47-15.15-3.73-11.22,4.2-8.55,19.05-.46,25.55,1.37,1.3,5.22,3.75,7,4.97l8.12,5.24c2.17,1.37,5.26,3.29,7.2,5.55,10.39,10.87,9.13,28.03-5.69,34.53-11.84,5.38-22.63-1.51-29.15-11.24-3.46-5.86-6.36-11.01-10.06-16.79-1.39-4.53,13.7,4.8,14.82,5.92,1.97,1.47,5.01,4,7.25,5.03,2.77,1.47,5.15,3.42,8.01,2.42,2.13-.75,4.66-2.28,5.3-4.47.56-1.3-.37-4.64-1.59-6.42-.85-1.49-2.26-2.34-3.89-3.79-4.76-4.12-11.28-8.78-15.51-13.56-10.5-11.59-10.62-34.26,7.41-37.95,7.18-1.14,15.84.23,17.95,8.16.29.95-1.12,1.47-1.53.6h-.02v-.02Z"/>
      <path class="cls-5" d="M1211.18,150.22c-4.49,25.34-12.94,49.73-22.32,73.64-4.29,12.23-6.71,24.99-13.73,36.33-6.96,11.59-17.08,22.13-29.83,27.16-.72.31-1.51-.54-1.1-1.24,3.15-5.96,6.19-11.41,8.84-16.93,5.53-11.08,9.17-22.19,14.91-33.31,8.55-17.1,17.66-34.07,26.25-51.22,5.03-9.9,11.1-24.51,15.38-34.9.17-.43.66-.66,1.1-.48.37.17.58.56.5.93h0v.02Z"/>
      <path class="cls-5" d="M1244.01,197.71c-3.42,10.16-9.85,19.83-18.57,26.64-6.13,4.43-12.42,7.22-18.55,11.22-9.48,5.3-20.29,6.79-31.18,4.91-.68-.12-1.04-.95-.64-1.53,4.26-6.5,9.83-10.95,16.15-14.8,5.88-3.73,13.15-4.26,19.6-6.15,12.98-3.25,23.14-10.76,31.76-21.12.56-.7,1.76-.04,1.45.81h-.02v.02Z"/>
      <path class="cls-5" d="M1190.93,231.16c1.28,7.66,3.95,14.28,8.3,20.2,3.42,4.26,7.29,8.24,12.09,10.87,3.73,1.76,7.43,3.23,10.72,5.8,5.01,3.85,9.46,7.58,13.89,12.81,2.01,2.86-9.69,3.93-11.05,3.75-8.98.08-17.41-4-22.94-11.08-4.66-5.32-8.92-11.03-11.28-17.72l-1.51-4.95c-1.51-6.71-1.45-13.52.1-19.75.21-.87,1.53-.81,1.66.06h.02Z"/>
      <path class="cls-5" d="M1280.05,245.2c5.67-8.67,5.24-22.01-6.44-23.52-8.98.37-17.6,6.98-21.55,14.91-1.45,3.15-2.34,8.07-.87,11.01,1.88,3.97,4.53,6.94,9.34,7.43,7.95.75,15.48-2.57,19.5-9.81h0l.02-.02ZM1281.5,245.99c-3.15,7.87-8.43,18.38-17.53,22.38-12.42,5.92-26.71-3.83-28.71-16.95-.83-4.7-.06-9.21,1.28-13,.99-2.96,2.32-5.88,4.04-8.45,5.63-8.38,14.3-14.43,24.26-16.31,7-1.57,15.05-.23,19,6.15,5.73,8.36,1.12,18.11-2.36,26.21h.02v-.02Z"/>
      <path class="cls-5" d="M1276.86,251.12c7.89,15.55,16.69,15.9,29.79,5.73,9.77-6.33,17.58-14.78,26.04-22.71,9.81-7.85,21.55-13.29,34.28-14.41.75-.06,1.26.83.83,1.43-2.9,4.43-6.07,8.12-9.23,11.68-4.8,5.22-9.48,10.1-14.84,14.55-5.61,4.64-12.32,8.14-18.53,11.94-9.11,5.09-17.16,10.21-28.01,12.01-12.05,1.66-20.43-9.09-21.9-19.75-.17-.95,1.2-1.37,1.57-.48h0Z"/>
    </g>
  </g>
  <text class="cls-4" transform="translate(826.5 387.74)"><tspan x="0" y="0">FOTOGRAFIA</tspan></text>
</svg>